<?xml version="1.0" encoding="UTF-8" standalone="no"?>
<!DOCTYPE svg PUBLIC "-//W3C//DTD SVG 1.1//EN" "http://www.w3.org/Graphics/SVG/1.1/DTD/svg11.dtd">
<svg width="100%" height="100%" viewBox="0 0 113 109" version="1.1" xmlns="http://www.w3.org/2000/svg" xmlns:xlink="http://www.w3.org/1999/xlink" xml:space="preserve" xmlns:serif="http://www.serif.com/" style="fill-rule:evenodd;clip-rule:evenodd;stroke-linecap:round;stroke-linejoin:round;stroke-miterlimit:1.5;">
    <g transform="matrix(1,0,0,1,-230.967,-2075.95)">
        <g transform="matrix(1,0,0,1,-3401.8,1241.67)">
            <g transform="matrix(1.33105,0,0,1.16991,3101.27,229.547)">
                <path d="M480.51,536.592C480.51,527.69 474.158,520.463 466.334,520.463L416.621,520.463C408.797,520.463 402.444,527.69 402.444,536.592L402.444,568.85C402.444,577.752 408.797,584.979 416.621,584.979L424.426,584.979L422.525,606.044L454.729,584.979L466.334,584.979C474.158,584.979 480.51,577.752 480.51,568.85L480.51,536.592Z" style="fill:none;stroke:rgb(70,70,70);stroke-width:6.65px;"/>
            </g>
        </g>
    </g>
</svg>
