<?xml version="1.0" encoding="UTF-8" standalone="no"?>
<!DOCTYPE svg PUBLIC "-//W3C//DTD SVG 1.1//EN" "http://www.w3.org/Graphics/SVG/1.1/DTD/svg11.dtd">
<svg width="100%" height="100%" viewBox="0 0 133 133" version="1.1" xmlns="http://www.w3.org/2000/svg" xmlns:xlink="http://www.w3.org/1999/xlink" xml:space="preserve" xmlns:serif="http://www.serif.com/" style="fill-rule:evenodd;clip-rule:evenodd;stroke-linecap:round;stroke-linejoin:round;stroke-miterlimit:2;">
    <g transform="matrix(1,0,0,1,-215.321,-1880.02)">
        <g transform="matrix(1,0,0,1,-3401.8,1241.67)">
            <g transform="matrix(1.05718,0,0,1.05718,3082.07,-1586.92)">
                <rect x="506.114" y="2104.91" width="124.88" height="124.88" style="fill:none;"/>
                <g transform="matrix(1.11239,0,0,1.11239,-3733.21,1137.64)">
                    <g transform="matrix(0.850345,0,0,0.850345,3627.92,-729.113)">
                        <path d="M319.731,1931.65L319.731,1922.84C319.731,1910.04 309.341,1899.65 296.544,1899.65L250.172,1899.65C237.375,1899.65 226.986,1910.04 226.986,1922.84L226.986,1969.21C226.986,1982.01 237.375,1992.4 250.172,1992.4L296.544,1992.4C309.341,1992.4 319.731,1982.01 319.731,1969.21L319.731,1964.05" style="fill:none;stroke:rgb(69,69,69);stroke-width:8.33px;"/>
                    </g>
                    <g transform="matrix(0.628179,0,0,0.547078,3566.6,-258.312)">
                        <path d="M556.349,2167.35L461.797,2167.35" style="fill:none;stroke:rgb(69,69,69);stroke-width:12.03px;"/>
                    </g>
                    <g transform="matrix(0.899448,0,0,0.899448,400.419,93.2521)">
                        <g transform="matrix(1,0,0,1,3401.8,-1241.67)">
                            <path d="M440.859,2169.07L465.991,2143.94" style="fill:none;stroke:rgb(69,69,69);stroke-width:7.88px;"/>
                        </g>
                        <g transform="matrix(1,0,0,-1,3401.8,3096.47)">
                            <path d="M440.859,2169.07L465.991,2143.94" style="fill:none;stroke:rgb(69,69,69);stroke-width:7.88px;"/>
                        </g>
                    </g>
                </g>
            </g>
        </g>
    </g>
</svg>
